<?xml version="1.0" encoding="UTF-8" standalone="no"?>
<svg width="201px" height="179px" viewBox="0 0 201 179" version="1.1" xmlns="http://www.w3.org/2000/svg" xmlns:xlink="http://www.w3.org/1999/xlink">
    <!-- Generator: Sketch 3.6.1 (26313) - http://www.bohemiancoding.com/sketch -->
    <title>Group 3</title>
    <desc>Created with Sketch.</desc>
    <defs></defs>
    <g id="Page-1" stroke="none" stroke-width="1" fill="none" fill-rule="evenodd">
        <g id="Group-3" transform="translate(-4.000000, -2.000000)" fill="#abdfff">
            <g id="noun_266143" transform="translate(99.454775, 125.615376) rotate(-14.000000) translate(-99.454775, -125.615376) translate(53.454775, 80.115376)">
                <path d="M90.4579636,87.671778 C70.4438701,70.8007287 68.0766118,35.4724628 67.9331416,33.4537048 L75.967473,33.4537048 C78.1912612,33.4537048 79.9129036,31.4349467 79.6259632,29.1998932 C77.4739101,12.7614348 62.9834195,-9.09494702e-13 45.4083196,-9.09494702e-13 C27.8332196,-9.09494702e-13 13.342729,12.7614348 11.1906759,29.1998932 C10.9037355,31.4349467 12.6253779,33.4537048 14.8491661,33.4537048 L23.887789,33.4537048 C23.7443188,35.4724628 21.3770604,70.8007287 1.36296694,87.5996795 C0.573880816,88.2485661 0.502145714,89.4021421 1.14776163,90.1231271 C1.50643714,90.5557181 2.00858286,90.7720136 2.51072857,90.7720136 C2.86940408,90.7720136 3.29981469,90.6278166 3.6584902,90.3394226 C25.322491,72.0985017 27.402809,35.0398718 27.4745441,33.4537048 L27.4745441,33.3816063 L35.7958159,33.3816063 C35.7240808,35.1119703 33.9307032,70.8007287 18.4359212,87.7438765 C17.7903053,88.4648616 17.7903053,89.6184376 18.5076563,90.2673241 C18.8663318,90.6278166 19.2967424,90.7720136 19.727153,90.7720136 C20.2292988,90.7720136 20.6597094,90.5557181 21.0183849,90.1952256 C37.7326636,71.9543047 39.2391008,35.0398718 39.3108359,33.4537048 L39.3108359,33.3816063 L43.6866771,33.3816063 L43.6866771,76.7128058 C43.6866771,77.7221848 44.4757632,78.5152683 45.4800547,78.5152683 C46.4843461,78.5152683 47.2734322,77.7221848 47.2734322,76.7128058 L47.2734322,33.4537048 L52.9405053,33.4537048 L52.9405053,33.5258033 C53.0122404,35.1119703 54.5904126,72.0264032 71.2329563,90.2673241 C71.5916318,90.6278166 72.0220424,90.8441121 72.5241881,90.8441121 C72.9545987,90.8441121 73.3850093,90.6999151 73.7436848,90.3394226 C74.4610359,89.6905361 74.4610359,88.5369601 73.8154199,87.815975 C58.2489028,70.8728272 56.4555253,35.1840688 56.3837902,33.4537048 L64.4181216,33.4537048 L64.4181216,33.5258033 C64.4898567,35.1119703 66.4984395,72.1706002 88.2341754,90.4115211 C88.5928509,90.6999151 88.9515265,90.8441121 89.3819371,90.8441121 C89.8840828,90.8441121 90.3862285,90.6278166 90.744904,90.1952256 C91.3187848,89.4021421 91.2470497,88.2485661 90.4579636,87.671778 L90.4579636,87.671778 Z" id="Shape"></path>
            </g>
            <g id="noun_266143" transform="translate(174.911549, 45.911549) rotate(-14.000000) translate(-174.911549, -45.911549) translate(149.411549, 20.411549)">
                <path d="M49.8423263,48.3071384 C38.8145634,39.0111924 37.5102043,19.5453224 37.4311522,18.432987 L41.8580678,18.432987 C43.0833748,18.432987 44.0319996,17.3206516 43.8738954,16.0891374 C42.6881145,7.03154893 34.703856,-9.09494702e-13 25.0199782,-9.09494702e-13 C15.3361004,-9.09494702e-13 7.35184194,7.03154893 6.16606098,16.0891374 C6.00795685,17.3206516 6.95658162,18.432987 8.18188861,18.432987 L13.1621686,18.432987 C13.0831166,19.5453224 11.7787575,39.0111924 0.750994607,48.2674121 C0.316208255,48.6249485 0.276682224,49.2605688 0.632416511,49.6578314 C0.830046671,49.896189 1.10672889,50.0153678 1.38341112,50.0153678 C1.58104128,50.0153678 1.81819747,49.9359153 2.01582763,49.7770102 C13.9526893,39.7262651 15.0989442,19.3069649 15.1384702,18.432987 L15.1384702,18.3932608 L19.7234899,18.3932608 C19.6839639,19.3466911 18.6958131,39.0111924 10.1581902,48.3468647 C9.80245592,48.7441273 9.80245592,49.3797476 10.1977162,49.7372839 C10.3953464,49.9359153 10.6325026,50.0153678 10.8696588,50.0153678 C11.146341,50.0153678 11.3834972,49.896189 11.5811274,49.6975577 C20.7906928,39.6468126 21.6207395,19.3069649 21.6602655,18.432987 L21.6602655,18.3932608 L24.0713534,18.3932608 L24.0713534,42.2687461 C24.0713534,42.8249138 24.5061398,43.2619027 25.0595042,43.2619027 C25.6128687,43.2619027 26.047655,42.8249138 26.047655,42.2687461 L26.047655,18.432987 L29.1702116,18.432987 L29.1702116,18.4727133 C29.2097376,19.3466911 30.0793103,39.6865389 39.2493497,49.7372839 C39.4469799,49.9359153 39.6841361,50.0550941 39.9608183,50.0550941 C40.1979745,50.0550941 40.4351307,49.9756415 40.6327608,49.7770102 C41.0280211,49.4194738 41.0280211,48.7838536 40.6722869,48.3865909 C32.0951379,39.0509186 31.1069871,19.3864174 31.0674611,18.432987 L35.4943767,18.432987 L35.4943767,18.4727133 C35.5339027,19.3466911 36.6406316,39.7659914 48.6170193,49.8167365 C48.8146494,49.9756415 49.0122796,50.0550941 49.2494358,50.0550941 C49.526118,50.0550941 49.8028002,49.9359153 50.0004304,49.6975577 C50.3166387,49.2605688 50.2771126,48.6249485 49.8423263,48.3071384 L49.8423263,48.3071384 Z" id="Shape"></path>
            </g>
            <g id="noun_266143" transform="translate(15.031759, 14.667572) rotate(-14.000000) translate(-15.031759, -14.667572) translate(2.531759, 2.667572)">
                <path d="M23.8285051,23.094566 C18.5563775,18.6503814 17.9327925,9.34418295 17.8949995,8.81240018 L20.0114091,8.81240018 C20.5972011,8.81240018 21.0507174,8.28061741 20.9751314,7.69185791 C20.4082359,3.36162679 16.5911399,0 11.9614938,0 C7.33184772,0 3.51475174,3.36162679 2.9478563,7.69185791 C2.87227024,8.28061741 3.32578659,8.81240018 3.91157855,8.81240018 L6.29253941,8.81240018 C6.25474638,9.34418295 5.63116139,18.6503814 0.35903378,23.0755737 C0.151172118,23.2465039 0.132275603,23.5503798 0.302344236,23.7403022 C0.396826809,23.8542557 0.529102413,23.9112324 0.661378016,23.9112324 C0.755860589,23.9112324 0.869239678,23.8732479 0.963722252,23.7972789 C6.6704697,18.9922418 7.21846863,9.2302295 7.23736514,8.81240018 L7.23736514,8.79340794 L9.42936085,8.79340794 C9.41046434,9.24922174 8.93805147,18.6503814 4.85640429,23.1135582 C4.68633565,23.3034806 4.68633565,23.6073565 4.8753008,23.7782867 C4.96978338,23.8732479 5.08316246,23.9112324 5.19654155,23.9112324 C5.32881716,23.9112324 5.44219624,23.8542557 5.53667882,23.7592944 C9.93956675,18.9542573 10.3363936,9.2302295 10.3552901,8.81240018 L10.3552901,8.79340794 L11.5079775,8.79340794 L11.5079775,20.2077452 C11.5079775,20.4736366 11.7158391,20.6825513 11.9803903,20.6825513 C12.2449415,20.6825513 12.4528032,20.4736366 12.4528032,20.2077452 L12.4528032,8.81240018 L13.9456279,8.81240018 L13.9456279,8.83139242 C13.9645244,9.24922174 14.3802477,18.9732495 18.7642391,23.7782867 C18.8587217,23.8732479 18.9721008,23.9302246 19.1043764,23.9302246 C19.2177555,23.9302246 19.3311346,23.8922401 19.4256171,23.7972789 C19.6145823,23.6263488 19.6145823,23.3224729 19.4445137,23.1325505 C15.34397,18.6693737 14.8715571,9.26821398 14.8526606,8.81240018 L16.9690702,8.81240018 L16.9690702,8.83139242 C16.9879667,9.24922174 17.5170692,19.011234 23.2427131,23.8162712 C23.3371957,23.8922401 23.4316783,23.9302246 23.5450574,23.9302246 C23.677333,23.9302246 23.8096086,23.8732479 23.9040911,23.7592944 C24.0552633,23.5503798 24.0363667,23.2465039 23.8285051,23.094566 L23.8285051,23.094566 Z" id="Shape"></path>
            </g>
        </g>
    </g>
</svg>